<?xml version="1.0" encoding="UTF-8" standalone="no"?>
<!-- Created with Inkscape (http://www.inkscape.org/) -->

<svg
   width="5773.9922"
   height="1450"
   viewBox="0 0 1443.498 362.5"
   version="1.1"
   id="svg1"
   xmlns="http://www.w3.org/2000/svg"
   xmlns:svg="http://www.w3.org/2000/svg">
  <defs
     id="defs1" />
  <g
     id="layer1"
     transform="translate(68.258829,65.26664)">
    <g
       id="g9"
       transform="translate(473.49022,-37.01662)"
       style="fill:#0080ff;fill-opacity:1">
      <path
         style="font-weight:bold;font-size:498.615px;font-family:'GeistMono Nerd Font';-inkscape-font-specification:'GeistMono Nerd Font Bold';text-align:center;text-anchor:middle;fill:#0080ff;fill-opacity:1;stroke:#000000;stroke-width:2.5;stroke-dasharray:none;stroke-opacity:1"
         d="M -67.008831,290 H 3.7944971 V 161.35733 H 42.187851 c 38.393355,0 51.357344,8.97507 54.349034,48.86427 L 102.52027,290 h 71.80055 l -8.47645,-98.72577 c -2.99169,-37.89474 -20.94183,-57.83934 -56.84211,-64.32133 34.40443,-10.96953 59.8338,-41.385046 59.8338,-84.76455 0,-65.318564 -45.37397,-106.204993 -121.662059,-106.204993 H -67.008831 Z M 3.7944971,97.534614 V -0.19392432 H 44.680926 c 32.90859,0 51.357344,17.95013932 51.357344,48.86426932 0,31.412744 -18.448754,48.864269 -51.357344,48.864269 z M 312.93599,295.98338 c 39.8892,0 68.80887,-18.94737 80.27701,-45.87258 6.98061,26.92521 27.42382,41.88366 60.83103,41.88366 9.9723,0 20.44321,-0.99723 24.43213,-1.99446 v -50.85873 h -10.96953 c -8.97507,0 -13.96122,-3.98892 -13.96122,-17.45152 v -94.23824 c 0,-69.806095 -35.40166,-110.692525 -112.18837,-110.692525 -61.82826,0 -104.21053,34.404435 -114.18283,86.759005 l 69.8061,3.98892 c 4.48753,-21.440441 17.95014,-36.398891 45.37396,-36.398891 30.91413,0 43.3795,18.94737 43.3795,52.354571 l -80.27701,17.45153 c -50.85873,10.96953 -81.27424,34.90305 -81.27424,79.7784 0,46.86981 39.39058,75.29086 88.75347,75.29086 z m 13.96122,-50.85873 c -21.44045,0 -33.40721,-9.9723 -33.40721,-27.92244 0,-18.44875 8.97507,-27.92244 32.90859,-32.90859 l 59.33518,-12.96399 v 15.95568 c 0,36.3989 -21.44044,57.83934 -58.83656,57.83934 z m 624.26635,50.85873 c 59.83384,0 100.72024,-31.41274 118.67034,-87.75624 l -67.8116,-4.48753 c -6.98062,19.9446 -24.93076,32.40997 -49.36289,32.40997 -33.4072,0 -55.84488,-21.44044 -58.83657,-61.32964 h 181.49586 v -16.95291 c 0,-85.761781 -51.3573,-141.108045 -125.15237,-141.108045 -75.29086,0 -126.14959,56.343494 -126.14959,139.612195 0,84.76455 51.85596,139.6122 127.14682,139.6122 z M 894.82007,128.44874 c 4.48754,-33.905816 24.43214,-51.855956 54.84765,-51.855956 29.41828,0 49.8615,17.451525 53.35178,51.855956 z M 1122.6873,290 h 251.302 v -53.85042 h -84.7646 V 22.24375 c 0,-57.340724 -29.4183,-86.260393 -86.759,-86.260393 h -69.8061 v 53.850419 h 57.8394 c 19.9446,0 30.9141,10.96952966 30.9141,30.914129 V 236.14958 h -98.7258 z"
         id="text1"
         aria-label="RaTel"
         transform="translate(-473.49022,37.01662)" />
      <path
         d="M 180,30 C 97.157288,30 30,97.157288 30,180 c 0,4.68393 0.219164,9.36541 0.657227,14.02881 l 0.09521,0.96338 C 38.459464,118.34756 102.96885,60 180,60 257.03115,60 321.54029,118.34795 329.29492,194.51074 329.78058,189.3655 330,184.68393 330,180 330,97.157288 262.84271,30 180,30 Z"
         style="fill:#0080ff;fill-opacity:1;stroke:#000000;stroke-width:2.5;stroke-dasharray:none;stroke-opacity:1"
         id="path3"
         transform="translate(5e-6)" />
      <path
         d="m 210.0376,123.03857 c 53.40166,10.9289 96.65143,49.92088 113.10302,101.71289 -1.52981,5.0047 -3.41552,10.07756 -5.63232,15.1084 C 303.64389,208.34687 279.3841,182.48019 248.72412,166.66943 242.93154,185.56738 240,205.22916 240,225 c 0,28.66879 6.16361,57.00258 18.09229,83.06885 -14.8023,9.02907 -31.0814,15.42806 -48.09229,18.90039 z"
         style="fill:#0080ff;fill-opacity:1;stroke:#000000;stroke-width:2.5;stroke-dasharray:none;stroke-opacity:1"
         id="path6"
         transform="translate(5e-6)" />
      <path
         d="M 210.0376,123.03857 210,326.96924 c 17.01089,-3.47233 33.28999,-9.87132 48.09229,-18.90039 C 246.16361,282.00258 240,253.66879 240,225 c 0,-19.77084 2.93154,-39.43262 8.72412,-58.33057 30.65998,15.81076 54.91977,41.67744 68.78418,73.19043 2.2168,-5.03084 4.10251,-10.1037 5.63232,-15.1084 C 306.68903,172.95945 263.43926,133.96747 210.0376,123.03857 Z"
         style="fill:#0080ff;fill-opacity:1;stroke:#000000;stroke-width:2.5;stroke-dasharray:none;stroke-opacity:1"
         id="path7"
         transform="translate(5e-6)" />
      <path
         d="M 149.9624,123.03857 C 96.56072,133.96747 53.311164,172.95913 36.9375,224.91016 l -0.155762,-0.31739 c 1.607779,5.1637 3.493722,10.23676 5.649414,15.19678 l 0.122071,0.14111 C 56.356529,208.34688 80.61591,182.48017 111.27588,166.66943 117.06844,185.5674 120,205.22916 120,225 c 0,28.66879 -6.16366,57.00254 -18.09229,83.06885 14.80233,9.02907 31.08145,15.42807 48.09229,18.90039 z"
         style="fill:#0080ff;fill-opacity:1;stroke:#000000;stroke-width:2.5;stroke-dasharray:none;stroke-opacity:1"
         id="path5"
         transform="translate(5e-6)" />
      <path
         d="M 149.9624,123.03857 150,326.96924 C 132.98916,323.49692 116.71004,317.09792 101.90771,308.06885 113.83634,282.00254 120,253.66879 120,225 c 0,-19.77084 -2.93156,-39.4326 -8.72412,-58.33057 -30.65997,15.81074 -54.919351,41.67745 -68.722657,73.26123 l -0.122071,-0.14111 c -2.155692,-4.96002 -4.041635,-10.03308 -5.649414,-15.19678 l 0.155762,0.31739 C 53.311164,172.95913 96.56072,133.96747 149.9624,123.03857 Z"
         style="fill:#0080ff;fill-opacity:1;stroke:#000000;stroke-width:2.5;stroke-dasharray:none;stroke-opacity:1"
         id="path4"
         transform="translate(5e-6)" />
    </g>
  </g>
</svg>
